{"title":"Ekk Deewana Tha (2012) DVDRip 720p x264 AAC TaRa.mkv","uid":15451456,"size":1552166618,"categoryP":"video","categoryS":"movies_dvdr","magnet":"?xt=urn:btih:ec247151c640274922f53b4344921c0ae478a653&amp;dn=Ekk+Deewana+Tha+%282012%29+DVDRip+720p+x264+AAC+TaRa.mkv&amp;tr=udp%3A%2F%2Ftracker.leechers-paradise.org%3A6969&amp;tr=udp%3A%2F%2Fzer0day.ch%3A1337&amp;tr=udp%3A%2F%2Fopen.demonii.com%3A1337&amp;tr=udp%3A%2F%2Ftracker.coppersurfer.tk%3A6969&amp;tr=udp%3A%2F%2Fexodus.desync.com%3A6969","seeders":0,"leechers":7,"uploader":"MdTaRa","files":1,"time":1469944938,"description":"====================================================================\r\nGeneral\r\nEkk Deewana Tha (2012) DVDRip 720p x264 AAC TaRa.mkv\r\nFormat                      : Matroska\r\nFormat version              : Version 4 / Version 2\r\nFile size                   : 1.45 GiB\r\nDuration                    : 2 h 17 min\r\nOverall bit rate mode       : Variable\r\nOverall bit rate            : 1 509 kb/s\r\n=====================================================================\r\nVideo\r\nID                          : 1\r\nFormat                      : AVC\r\nFormat/Info                 : Advanced Video Codec\r\nFormat profile              :   \r\nFormat settings, CABAC      : Yes\r\nFormat settings, ReFrames   : 3 frames\r\nCodec ID                    : V_MPEG4/ISO/AVC\r\nDuration                    : 2 h 17 min\r\nBit rate mode               : Variable\r\nBit rate                    : 1 412 kb/s\r\nMaximum bit rate            : 40.0 Mb/s\r\nWidth                       : 1 272 pixels\r\nHeight                      : 552 pixels\r\nDisplay aspect ratio        : 2.35:1\r\nFrame rate mode             : Constant\r\nFrame rate                  : 24.000 FPS\r\nColor space                 : YUV\r\nChroma subsampling          : 4:2:0\r\nBit depth                   : 8 bits\r\nScan type                   : Progressive\r\nBits/(Pixel*Frame)          : 0.084\r\nStream size                 : 1.35 GiB (94%)\r\nTitle                       : .....::::: TaRa :::::....\r\nLanguage                    : Hindi\r\nDefault                     : Yes\r\nForced                      : No\r\n=========================================================================\r\nAudio\r\nID                          : 2\r\nFormat                      : AAC\r\nFormat/Info                 : Advanced Audio Codec\r\nFormat profile              : LC\r\nCodec ID                    : A_AAC\r\nDuration                    : 2 h 17 min\r\nBit rate                    : 96.0 kb/s\r\nChannel(s)                  : 2 channels\r\nChannel positions           : Front: L R\r\nSampling rate               : 48.0 kHz\r\nFrame rate                  : 46.875 FPS (1024 spf)\r\nCompression mode            : Lossy\r\nDelay relative to video     : 9 ms\r\nStream size                 : 93.6 MiB (6%)\r\nTitle                       : .....::::: TaRa :::::....\r\nLanguage                    : Hindi\r\nDefault                     : Yes\r\nForced                      : No\r\n====================================================================== \nhttp://imgur.com/BeslHMm \nhttp://imgur.com/MkRj3Am","torrent":{"xt":"urn:btih:ec247151c640274922f53b4344921c0ae478a653","amp;dn":"Ekk+Deewana+Tha+%282012%29+DVDRip+720p+x264+AAC+TaRa.mkv","amp;tr":["udp%3A%2F%2Ftracker.leechers-paradise.org%3A6969","udp%3A%2F%2Fzer0day.ch%3A1337","udp%3A%2F%2Fopen.demonii.com%3A1337","udp%3A%2F%2Ftracker.coppersurfer.tk%3A6969","udp%3A%2F%2Fexodus.desync.com%3A6969"],"infoHash":"ec247151c640274922f53b4344921c0ae478a653","infoHashBuffer":{"type":"Buffer","data":[236,36,113,81,198,64,39,73,34,245,59,67,68,146,28,10,228,120,166,83]},"announce":[],"urlList":[]}}